<?xml version="1.0" standalone="no"?>
<!DOCTYPE svg PUBLIC "-//W3C//DTD SVG 20010904//EN"
 "http://www.w3.org/TR/2001/REC-SVG-20010904/DTD/svg10.dtd">
<svg version="1.0" xmlns="http://www.w3.org/2000/svg"
 width="622.000000pt" height="622.000000pt" viewBox="0 0 622.000000 622.000000"
 preserveAspectRatio="xMidYMid meet">
<metadata>
Created by potrace 1.14, written by Peter Selinger 2001-2017
</metadata>
<g transform="translate(0.000000,622.000000) scale(0.100000,-0.100000)"
fill="#000000" stroke="none">
<path d="M0 3110 l0 -3110 3110 0 3110 0 0 3110 0 3110 -3110 0 -3110 0 0
-3110z m1430 360 l0 -1560 703 0 702 0 -2 -202 -2 -203 -931 -3 -930 -2 0
1765 0 1765 230 0 230 0 0 -1560z m3350 671 c96 -12 228 -43 278 -67 56 -26
62 -55 62 -303 0 -213 -1 -220 -21 -235 -23 -16 -28 -15 -104 19 -27 12 -68
28 -90 35 -22 7 -51 17 -64 22 -49 19 -256 48 -339 48 -90 0 -216 -26 -248
-51 -40 -32 -86 -84 -95 -106 -5 -13 -9 -52 -9 -85 0 -47 6 -71 25 -104 27
-47 116 -120 215 -178 36 -20 72 -41 80 -46 8 -5 57 -31 108 -57 143 -73 142
-73 227 -128 166 -109 277 -222 335 -341 13 -27 27 -58 33 -68 5 -11 18 -60
28 -109 55 -264 -23 -552 -194 -718 -78 -76 -243 -179 -287 -179 -9 0 -20 -4
-25 -9 -22 -20 -181 -51 -311 -61 -282 -21 -640 40 -776 133 l-28 18 0 262 c0
144 4 268 9 276 7 11 24 5 87 -30 43 -24 83 -46 89 -48 5 -2 24 -9 40 -16 39
-17 130 -46 175 -56 19 -4 53 -12 75 -18 22 -6 114 -11 205 -12 162 0 166 0
231 29 84 38 120 77 143 154 17 59 17 64 1 119 -17 55 -67 119 -141 179 -37
31 -173 111 -286 169 -129 66 -230 126 -296 176 -46 34 -178 166 -201 200 -82
122 -113 227 -118 405 -4 136 7 215 43 297 8 17 14 35 14 41 0 5 7 15 15 22 8
7 15 18 15 26 0 35 124 176 210 238 111 81 255 138 395 157 44 6 82 13 85 16
7 8 311 -4 410 -16z"/>
</g>
</svg>
